<?xml version="1.0" ?>
<mxfile host="app.diagrams.net" modified="2025-10-17T00:00:00Z" version="20.6.3">
  <diagram name="Flujo de Testing">
    <mxGraphModel>
      <root>
        <mxCell id="0"/>
        <mxCell id="1" parent="0"/>
        <mxCell id="2" value="Inicio" style="rounded=1;whiteSpace=wrap;html=1;fillColor=#dae8fc;strokeColor=#6c8ebf;fontSize=14;" vertex="1" parent="1">
          <mxGeometry x="120" y="20" width="160" height="60" as_="geometry"/>
        </mxCell>
        <mxCell id="3" value="Planeación" style="rounded=1;whiteSpace=wrap;html=1;fillColor=#dae8fc;strokeColor=#6c8ebf;fontSize=14;" vertex="1" parent="1">
          <mxGeometry x="120" y="120" width="160" height="60" as_="geometry"/>
        </mxCell>
        <mxCell id="4" value="Diseño de casos" style="rounded=1;whiteSpace=wrap;html=1;fillColor=#dae8fc;strokeColor=#6c8ebf;fontSize=14;" vertex="1" parent="1">
          <mxGeometry x="120" y="220" width="160" height="60" as_="geometry"/>
        </mxCell>
        <mxCell id="5" value="Ejecución" style="rounded=1;whiteSpace=wrap;html=1;fillColor=#dae8fc;strokeColor=#6c8ebf;fontSize=14;" vertex="1" parent="1">
          <mxGeometry x="120" y="320" width="160" height="60" as_="geometry"/>
        </mxCell>
        <mxCell id="6" value="Registro de resultados" style="rounded=1;whiteSpace=wrap;html=1;fillColor=#dae8fc;strokeColor=#6c8ebf;fontSize=14;" vertex="1" parent="1">
          <mxGeometry x="120" y="420" width="160" height="60" as_="geometry"/>
        </mxCell>
        <mxCell id="7" value="Reporte" style="rounded=1;whiteSpace=wrap;html=1;fillColor=#dae8fc;strokeColor=#6c8ebf;fontSize=14;" vertex="1" parent="1">
          <mxGeometry x="120" y="520" width="160" height="60" as_="geometry"/>
        </mxCell>
        <mxCell id="8" value="Cierre" style="rounded=1;whiteSpace=wrap;html=1;fillColor=#dae8fc;strokeColor=#6c8ebf;fontSize=14;" vertex="1" parent="1">
          <mxGeometry x="120" y="620" width="160" height="60" as_="geometry"/>
        </mxCell>
        <mxCell id="100" style="edgeStyle=orthogonalEdgeStyle;rounded=0;orthogonalLoop=1;jettySize=auto;html=1;strokeColor=#6c8ebf;" edge="1" parent="1" source="2" target="3">
          <mxGeometry relative="1" as_="geometry"/>
        </mxCell>
        <mxCell id="101" style="edgeStyle=orthogonalEdgeStyle;rounded=0;orthogonalLoop=1;jettySize=auto;html=1;strokeColor=#6c8ebf;" edge="1" parent="1" source="3" target="4">
          <mxGeometry relative="1" as_="geometry"/>
        </mxCell>
        <mxCell id="102" style="edgeStyle=orthogonalEdgeStyle;rounded=0;orthogonalLoop=1;jettySize=auto;html=1;strokeColor=#6c8ebf;" edge="1" parent="1" source="4" target="5">
          <mxGeometry relative="1" as_="geometry"/>
        </mxCell>
        <mxCell id="103" style="edgeStyle=orthogonalEdgeStyle;rounded=0;orthogonalLoop=1;jettySize=auto;html=1;strokeColor=#6c8ebf;" edge="1" parent="1" source="5" target="6">
          <mxGeometry relative="1" as_="geometry"/>
        </mxCell>
        <mxCell id="104" style="edgeStyle=orthogonalEdgeStyle;rounded=0;orthogonalLoop=1;jettySize=auto;html=1;strokeColor=#6c8ebf;" edge="1" parent="1" source="6" target="7">
          <mxGeometry relative="1" as_="geometry"/>
        </mxCell>
        <mxCell id="105" style="edgeStyle=orthogonalEdgeStyle;rounded=0;orthogonalLoop=1;jettySize=auto;html=1;strokeColor=#6c8ebf;" edge="1" parent="1" source="7" target="8">
          <mxGeometry relative="1" as_="geometry"/>
        </mxCell>
      </root>
    </mxGraphModel>
  </diagram>
</mxfile>
